<svg xmlns="http://www.w3.org/2000/svg" viewBox="0 0 1447 429"><g fill="none" stroke-width="2"><path stroke="gray" d="M1447 76.31c-1.03-3.63-3.61-5.12-7.41-5.41-28.81-2.21-45.21 19.55-53.63 44.06q-.15.43-.42.2a.27.27 0 0 1-.09-.2q.08-15.37.05-30.74c-.01-4.23-1.76-7.94-6.26-7.97-4.31-.02-17.26-1.33-19.7 2.55q-.96 1.53-.97 4.61-.42 131.2-.35 188.09c.01 9.84 14.37 7 20.65 7 5.15.01 9.41-1.18 9.4-7q-.09-46.1.04-92.18.03-14.44.71-19.97c3.33-27.18 20.59-56.76 51.19-57.96 3.85-.15 6.02-1.99 6.79-5.58" vector-effect="non-scaling-stroke"/><path stroke="#ffcc80" d="M488.44 429c84.29-2.14 170.87-25.52 240.99-73.33q7.67-5.23 9.02-6.7c5.72-6.28 1.71-14.69-6.39-15.23q-2.58-.17-6.84 1.57c-88.79 36.24-182.76 53.38-278.63 46.76q-144.56-9.98-270.52-81.63c-4.9-2.78-11.24 1.06-8.55 6.68q.9 1.88 4.12 4.71 113.73 100.12 264.91 115.12c11.73 1.16 24.59 1.58 36.89 2.05" vector-effect="non-scaling-stroke"/><path stroke="gray" d="M0 227.44c2.26 32.07 20.22 52.58 53 53.53 26.44.78 43.7-7.07 61.71-25.82a1 1 0 0 1 1.58.19q7.08 12.11 17.75 21.43c3.38 2.96 7.57 4.56 11.17 1.43q12.81-11.15 25.65-22.27c5.96-5.17 6.02-7.39 1.24-13.99-7.4-10.21-12.38-18.8-12.37-31.94q.04-35.59-.01-71.18c-.02-10.72-.54-19.78-3.22-28.82-12.05-40.68-69.3-43.83-101.47-34.39-25.71 7.54-43.23 24.08-48.74 51.22-1.15 5.69 2.63 7.81 7.75 8.4q14.52 1.65 29.05 3.17c10.06 1.06 9.06-3.09 11.88-10.7 7.11-19.18 39.22-25.1 49.66-6.36q2.71 4.88 3.36 14.3.5 7.19.22 14.46a1 .99 88.4 0 1-.9.96q-17.41 1.68-34.74 4.08C35.05 160.36 1.85 177.62 0 220.44M1299.49 75.27q-.89-12.25.97-24.31c4.01-26.06 22.52-27.57 44.25-22.13a1.03.99 40.3 0 0 .62-.04c6.18-2.5 4.73-10.19 4.68-17.13-.04-4.32-1.61-7.29-5.94-7.98q-10.93-1.76-24.82-2.44c-28.87-1.41-43.05 17.47-47.61 43.6q-2.61 14.96-2.09 30.27a1 1 0 0 1-.98 1.04q-10.54.2-21.09.08c-10.98-.12-8.8 9.3-8.7 16.71.08 5.88 2.44 8.09 8.49 8.07q10.57-.05 21.23.04a.99.99 0 0 1 .99.99q.02 84.61.01 169.22c0 4.9 2.63 7.17 7.57 7.22q7.72.07 15.44-.02c4.71-.05 6.76-2.61 6.76-7.34q-.09-84.46.11-168.98a1 1 0 0 1 .98-1q13.37-.24 26.75-.15c7.02.05 12.46.72 12.61-7.75.14-7.41 1.94-17.18-7.97-17.01q-7.44.14-31.27-.03a1.01 1 88.1 0 1-.99-.93M597.6 255.62q7.57 11.96 18.08 21.35c4.19 3.75 8.26 3.87 12.36.05q4.62-4.31 26.17-22.85 4.96-4.27 1.22-9.62c-8-11.43-14.19-19.44-14.17-34.05q.04-38.34-.23-76.69-.11-14.31-2.96-23.61c-11.61-37.84-60.64-43.1-93.24-36.8-28.34 5.48-50.62 22.83-56.77 51.99-1.12 5.32.39 9.18 6.12 9.8q16.9 1.83 33.84 3.38c6.52.6 6.88-7.26 8.59-11.44 6.77-16.5 31.79-23.14 45.27-11.1 9.7 8.66 7.23 22.68 7.75 34.08a1.01 1-3.9 0 1-.91 1.04c-18.64 1.69-37.31 3.49-55.39 8.22-37.55 9.84-58.02 40.9-50.36 79.69 5.82 29.5 28.6 42.71 57.13 42.06 14-.32 27.47-3.35 38.84-11.2q8.32-5.74 17.11-14.47a1 1 0 0 1 1.55.17M283.85 120.45c14.85 3.2 16.26 19.98 16.69 32.66q.34 9.91-.01 23.45-.45 17.53.3 94.71c.06 5.68 3.57 7.22 8.87 7.22q16.79.03 33.58-.01c5.45-.02 7.72-3.04 7.72-8.45q0-52.27.08-104.53c.01-9.24 0-20.1 3.16-28.88 4-11.07 14.11-17.51 25.88-16.27 16.69 1.76 18.95 15.35 18.94 29.15q-.07 60.31-.05 120.62c0 6.06 2.77 8.37 8.89 8.37q16.33.01 32.68.01c8.93.01 8.9-4.91 8.91-12.66q.02-67.45.01-134.91c-.01-23.75-6.6-43.27-29.04-53.22-8.58-3.8-18.93-5.63-28.17-4.66q-31.74 3.32-44.48 32.37-.89 2.02-1.82.02-5.38-11.5-11.92-18.49c-12.58-13.47-30.93-16.39-48.42-12.57-16.87 3.68-28.61 17.1-34.6 33.16a.32.31 8.9 0 1-.3.21h-.28a.21.2 88.7 0 1-.21-.21q-.02-10.73-.01-21.48c.01-4.94-1.39-9.1-6.82-9.27q-5.37-.16-33.17.07-8.01.07-8.01 7.89v185.86c.01 6.26 3.51 7.9 9.41 7.9q15.58-.01 31.16-.01c5.96 0 9.93-1.45 9.93-8q-.01-53.78.02-107.54c.02-19.23 2.93-48.6 31.08-42.51m567.1 109.1c9.78 25.7 29.5 45.91 56.99 51.25 51.64 10.01 88.62-26.24 97.66-74.13 10.23-54.22-8.8-130.19-76.11-133.65-84.43-4.34-101.07 97.24-78.54 156.53m232.92-118.79q-.44.06-.44-.32.11-12.25.08-24.5c-.02-5.51-1.6-9.05-7.52-9.13q-16.41-.21-32.8.07c-5.67.1-7.44 3.45-7.44 8.84q-.01 92.2.01 184.4c0 6.06 2.77 8.37 8.89 8.37q15.83.02 31.68.01c5.84 0 9.94-1.61 9.94-8q-.13-90.66.05-108.56c.14-13.98 4.42-34.83 18.73-40.88 9.26-3.92 21.23-1.1 26.13 8.25 4.19 7.99 5.01 18.63 5.04 27q.08 21.68.03 114.87c-.01 5.17 3.14 7.27 8.16 7.29q17.18.08 34.34 0c5.68-.03 7.74-2.77 7.75-8.43q.03-61.39-.03-122.76c-.01-12.43-.36-24.38-2.75-34.71-6.19-26.75-25.98-41-52.9-39.66-24.33 1.2-38.04 15.75-46.54 37.53a.5.49-82.1 0 1-.41.32m-330 6.3q1.91 0 .82 1.57-33.59 48.24-67.17 96.48c-5.68 8.16-8.42 13.15-8.45 22.4q-.05 19.83-.03 27.23c.02 5 1.4 8.37 6.61 9.02a.95.94 35.3 0 0 .55-.09c6.62-3.13 13.54-6.51 20.25-8.71q51.64-16.92 101.93 4.61c3.3 1.42 7.48 4.82 11.13 3.49 3.36-1.21 4.44-4.13 4.46-7.73q.06-11.67.03-23.37c-.02-8.61-1.52-12.45-9.19-16.01q-15.04-6.98-25.58-9.41-18.98-4.36-38.46-3.96-1.97.04-.84-1.58 32.9-46.96 65.7-94.1 4.31-6.19 4.67-9.14.61-4.85.16-24.08c-.12-5.47-3.61-7.34-8.82-7.36q-85.21-.24-118.7-.03c-5.39.04-6.96 3.74-6.95 8.7q.02 11.72.01 23.46c-.01 5.27 2.02 8.55 7.51 8.54q30.25-.03 60.36.07m491.839 146.689a18.02 17.14.6 0 0-17.84-17.328 18.02 17.14.6 0 0-18.198 16.95 18.02 17.14.6 0 0 17.84 17.328 18.02 17.14.6 0 0 18.198-16.95" vector-effect="non-scaling-stroke"/><path stroke="#ffcc80" d="M679.8 314.45q1.7 1.35 3.85 1.1c14.96-1.74 69.76-9.1 80.05 1.5 11.02 11.35-9.98 62.97-17.15 80.22q-1.14 2.75.19 4.6c5.22 7.27 21.23-14.19 23.27-17.07q18.64-26.15 24.51-57.79c1.36-7.32 4.78-28.79-1.8-32.78q-6.31-3.82-16.88-5.44c-30.82-4.74-65.9-.56-92.34 16.77-2.34 1.54-7.21 6.12-3.7 8.89" vector-effect="non-scaling-stroke"/><path stroke="gray" d="M63.19 240.06c8.08 5.71 18.28 4.92 26.44-.06 19.42-11.84 18.92-38.92 18.53-58.4a1 1 0 0 0-.98-.98q-14.31-.27-28.07 3.61c-11.73 3.31-20.88 10.31-24.04 22.53-2.83 10.94-1.76 26.33 8.12 33.3m495.86-55.47c-10.42 3.1-19.25 10.45-22.27 21.17-3 10.65-2.31 24.09 5.41 32.17 10.51 11.02 28.6 5.9 36.91-5.11 9.22-12.22 10.19-24.43 10.39-39.29q.08-6-.02-11.97a1 .99 89.7 0 0-.98-.98q-15.08-.25-29.44 4.01m360.26-72.56c-20.49 4.54-23.28 34.9-23.38 51.22-.11 19.5-3.29 79.84 28.31 80.19 22.06.24 27.41-24.33 28.86-41.19q1.9-22 .39-44.08c-.74-10.93-2.71-27.84-8.56-36.61-5.68-8.52-15.74-11.72-25.62-9.53" vector-effect="non-scaling-stroke"/></g><path fill="#fff" d="M0 0h1447v76.31c-1.03-3.63-3.61-5.12-7.41-5.41-28.81-2.21-45.21 19.55-53.63 44.06q-.15.43-.42.2a.27.27 0 0 1-.09-.2q.08-15.37.05-30.74c-.01-4.23-1.76-7.94-6.26-7.97-4.31-.02-17.26-1.33-19.7 2.55q-.96 1.53-.97 4.61-.42 131.2-.35 188.09c.01 9.84 14.37 7 20.65 7 5.15.01 9.41-1.18 9.4-7q-.09-46.1.04-92.18.03-14.44.71-19.97c3.33-27.18 20.59-56.76 51.19-57.96 3.85-.15 6.02-1.99 6.79-5.58V429H488.44c84.29-2.14 170.87-25.52 240.99-73.33q7.67-5.23 9.02-6.7c5.72-6.28 1.71-14.69-6.39-15.23q-2.58-.17-6.84 1.57c-88.79 36.24-182.76 53.38-278.63 46.76q-144.56-9.98-270.52-81.63c-4.9-2.78-11.24 1.06-8.55 6.68q.9 1.88 4.12 4.71 113.73 100.12 264.91 115.12c11.73 1.16 24.59 1.58 36.89 2.05H0V227.44c2.26 32.07 20.22 52.58 53 53.53 26.44.78 43.7-7.07 61.71-25.82a1 1 0 0 1 1.58.19q7.08 12.11 17.75 21.43c3.38 2.96 7.57 4.56 11.17 1.43q12.81-11.15 25.65-22.27c5.96-5.17 6.02-7.39 1.24-13.99-7.4-10.21-12.38-18.8-12.37-31.94q.04-35.59-.01-71.18c-.02-10.72-.54-19.78-3.22-28.82-12.05-40.68-69.3-43.83-101.47-34.39-25.71 7.54-43.23 24.08-48.74 51.22-1.15 5.69 2.63 7.81 7.75 8.4q14.52 1.65 29.05 3.17c10.06 1.06 9.06-3.09 11.88-10.7 7.11-19.18 39.22-25.1 49.66-6.36q2.71 4.88 3.36 14.3.5 7.19.22 14.46a1 .99 88.4 0 1-.9.96q-17.41 1.68-34.74 4.08C35.05 160.36 1.85 177.62 0 220.44V0Zm1299.49 75.27q-.89-12.25.97-24.31c4.01-26.06 22.52-27.57 44.25-22.13a1.03.99 40.3 0 0 .62-.04c6.18-2.5 4.73-10.19 4.68-17.13-.04-4.32-1.61-7.29-5.94-7.98q-10.93-1.76-24.82-2.44c-28.87-1.41-43.05 17.47-47.61 43.6q-2.61 14.96-2.09 30.27a1 1 0 0 1-.98 1.04q-10.54.2-21.09.08c-10.98-.12-8.8 9.3-8.7 16.71.08 5.88 2.44 8.09 8.49 8.07q10.57-.05 21.23.04a.99.99 0 0 1 .99.99q.02 84.61.01 169.22c0 4.9 2.63 7.17 7.57 7.22q7.72.07 15.44-.02c4.71-.05 6.76-2.61 6.76-7.34q-.09-84.46.11-168.98a1 1 0 0 1 .98-1q13.37-.24 26.75-.15c7.02.05 12.46.72 12.61-7.75.14-7.41 1.94-17.18-7.97-17.01q-7.44.14-31.27-.03a1.01 1 88.1 0 1-.99-.93ZM597.6 255.62q7.57 11.96 18.08 21.35c4.19 3.75 8.26 3.87 12.36.05q4.62-4.31 26.17-22.85 4.96-4.27 1.22-9.62c-8-11.43-14.19-19.44-14.17-34.05q.04-38.34-.23-76.69-.11-14.31-2.96-23.61c-11.61-37.84-60.64-43.1-93.24-36.8-28.34 5.48-50.62 22.83-56.77 51.99-1.12 5.32.39 9.18 6.12 9.8q16.9 1.83 33.84 3.38c6.52.6 6.88-7.26 8.59-11.44 6.77-16.5 31.79-23.14 45.27-11.1 9.7 8.66 7.23 22.68 7.75 34.08a1.01 1-3.9 0 1-.91 1.04c-18.64 1.69-37.31 3.49-55.39 8.22-37.55 9.84-58.02 40.9-50.36 79.69 5.82 29.5 28.6 42.71 57.13 42.06 14-.32 27.47-3.35 38.84-11.2q8.32-5.74 17.11-14.47a1 1 0 0 1 1.55.17ZM283.85 120.45c14.85 3.2 16.26 19.98 16.69 32.66q.34 9.91-.01 23.45-.45 17.53.3 94.71c.06 5.68 3.57 7.22 8.87 7.22q16.79.03 33.58-.01c5.45-.02 7.72-3.04 7.72-8.45q0-52.27.08-104.53c.01-9.24 0-20.1 3.16-28.88 4-11.07 14.11-17.51 25.88-16.27 16.69 1.76 18.95 15.35 18.94 29.15q-.07 60.31-.05 120.62c0 6.06 2.77 8.37 8.89 8.37q16.33.01 32.68.01c8.93.01 8.9-4.91 8.91-12.66q.02-67.45.01-134.91c-.01-23.75-6.6-43.27-29.04-53.22-8.58-3.8-18.93-5.63-28.17-4.66q-31.74 3.32-44.48 32.37-.89 2.02-1.82.02-5.38-11.5-11.92-18.49c-12.58-13.47-30.93-16.39-48.42-12.57-16.87 3.68-28.61 17.1-34.6 33.16a.32.31 8.9 0 1-.3.21h-.28a.21.2 88.7 0 1-.21-.21q-.02-10.73-.01-21.48c.01-4.94-1.39-9.1-6.82-9.27q-5.37-.16-33.17.07-8.01.07-8.01 7.89v185.86c.01 6.26 3.51 7.9 9.41 7.9q15.58-.01 31.16-.01c5.96 0 9.93-1.45 9.93-8q-.01-53.78.02-107.54c.02-19.23 2.93-48.6 31.08-42.51Zm567.1 109.1c9.78 25.7 29.5 45.91 56.99 51.25 51.64 10.01 88.62-26.24 97.66-74.13 10.23-54.22-8.8-130.19-76.11-133.65-84.43-4.34-101.07 97.24-78.54 156.53Zm232.92-118.79q-.44.06-.44-.32.11-12.25.08-24.5c-.02-5.51-1.6-9.05-7.52-9.13q-16.41-.21-32.8.07c-5.67.1-7.44 3.45-7.44 8.84q-.01 92.2.01 184.4c0 6.06 2.77 8.37 8.89 8.37q15.83.02 31.68.01c5.84 0 9.94-1.61 9.94-8q-.13-90.66.05-108.56c.14-13.98 4.42-34.83 18.73-40.88 9.26-3.92 21.23-1.1 26.13 8.25 4.19 7.99 5.01 18.63 5.04 27q.08 21.68.03 114.87c-.01 5.17 3.14 7.27 8.16 7.29q17.18.08 34.34 0c5.68-.03 7.74-2.77 7.75-8.43q.03-61.39-.03-122.76c-.01-12.43-.36-24.38-2.75-34.71-6.19-26.75-25.98-41-52.9-39.66-24.33 1.2-38.04 15.75-46.54 37.53a.5.49-82.1 0 1-.41.32Zm-330 6.3q1.91 0 .82 1.57-33.59 48.24-67.17 96.48c-5.68 8.16-8.42 13.15-8.45 22.4q-.05 19.83-.03 27.23c.02 5 1.4 8.37 6.61 9.02a.95.94 35.3 0 0 .55-.09c6.62-3.13 13.54-6.51 20.25-8.71q51.64-16.92 101.93 4.61c3.3 1.42 7.48 4.82 11.13 3.49 3.36-1.21 4.44-4.13 4.46-7.73q.06-11.67.03-23.37c-.02-8.61-1.52-12.45-9.19-16.01q-15.04-6.98-25.58-9.41-18.98-4.36-38.46-3.96-1.97.04-.84-1.58 32.9-46.96 65.7-94.1 4.31-6.19 4.67-9.14.61-4.85.16-24.08c-.12-5.47-3.61-7.34-8.82-7.36q-85.21-.24-118.7-.03c-5.39.04-6.96 3.74-6.95 8.7q.02 11.72.01 23.46c-.01 5.27 2.02 8.55 7.51 8.54q30.25-.03 60.36.07Zm491.839 146.689a18.02 17.14.6 0 0-17.84-17.328 18.02 17.14.6 0 0-18.198 16.95 18.02 17.14.6 0 0 17.84 17.328 18.02 17.14.6 0 0 18.198-16.95ZM679.8 314.45q1.7 1.35 3.85 1.1c14.96-1.74 69.76-9.1 80.05 1.5 11.02 11.35-9.98 62.97-17.15 80.22q-1.14 2.75.19 4.6c5.22 7.27 21.23-14.19 23.27-17.07q18.64-26.15 24.51-57.79c1.36-7.32 4.78-28.79-1.8-32.78q-6.31-3.82-16.88-5.44c-30.82-4.74-65.9-.56-92.34 16.77-2.34 1.54-7.21 6.12-3.7 8.89Z"/><path d="M1300.48 76.2q23.83.17 31.27.03c9.91-.17 8.11 9.6 7.97 17.01-.15 8.47-5.59 7.8-12.61 7.75q-13.38-.09-26.75.15a1 1 0 0 0-.98 1q-.2 84.52-.11 168.98c0 4.73-2.05 7.29-6.76 7.34q-7.72.09-15.44.02c-4.94-.05-7.57-2.32-7.57-7.22q.01-84.61-.01-169.22a.99.99 0 0 0-.99-.99q-10.66-.09-21.23-.04c-6.05.02-8.41-2.19-8.49-8.07-.1-7.41-2.28-16.83 8.7-16.71q10.55.12 21.09-.08a1 1 0 0 0 .98-1.04q-.52-15.31 2.09-30.27c4.56-26.13 18.74-45.01 47.61-43.6q13.89.68 24.82 2.44c4.33.69 5.9 3.66 5.94 7.98.05 6.94 1.5 14.63-4.68 17.13a1.03.99 40.3 0 1-.62.04c-21.73-5.44-40.24-3.93-44.25 22.13q-1.86 12.06-.97 24.31a1.01 1 88.1 0 0 .99.93Zm146.52.11v19.5c-.77 3.59-2.94 5.43-6.79 5.58-30.6 1.2-47.86 30.78-51.19 57.96q-.68 5.53-.71 19.97-.13 46.08-.04 92.18c.01 5.82-4.25 7.01-9.4 7-6.28 0-20.64 2.84-20.65-7q-.07-56.89.35-188.09.01-3.08.97-4.61c2.44-3.88 15.39-2.57 19.7-2.55 4.5.03 6.25 3.74 6.26 7.97q.03 15.37-.05 30.74a.27.27 0 0 0 .09.2q.27.23.42-.2c8.42-24.51 24.82-46.27 53.63-44.06 3.8.29 6.38 1.78 7.41 5.41ZM0 227.44v-7c1.85-42.82 35.05-60.08 72.57-65.3q17.33-2.4 34.74-4.08a1 .99 88.4 0 0 .9-.96q.28-7.27-.22-14.46-.65-9.42-3.36-14.3c-10.44-18.74-42.55-12.82-49.66 6.36-2.82 7.61-1.82 11.76-11.88 10.7q-14.53-1.52-29.05-3.17c-5.12-.59-8.9-2.71-7.75-8.4 5.51-27.14 23.03-43.68 48.74-51.22C87.2 66.17 144.45 69.32 156.5 110c2.68 9.04 3.2 18.1 3.22 28.82q.05 35.59.01 71.18c-.01 13.14 4.97 21.73 12.37 31.94 4.78 6.6 4.72 8.82-1.24 13.99q-12.84 11.12-25.65 22.27c-3.6 3.13-7.79 1.53-11.17-1.43q-10.67-9.32-17.75-21.43a1 1 0 0 0-1.58-.19C96.7 273.9 79.44 281.75 53 280.97c-32.78-.95-50.74-21.46-53-53.53Zm63.19 12.62c8.08 5.71 18.28 4.92 26.44-.06 19.42-11.84 18.92-38.92 18.53-58.4a1 1 0 0 0-.98-.98q-14.31-.27-28.07 3.61c-11.73 3.31-20.88 10.31-24.04 22.53-2.83 10.94-1.76 26.33 8.12 33.3Zm532.86 15.39q-8.79 8.73-17.11 14.47c-11.37 7.85-24.84 10.88-38.84 11.2-28.53.65-51.31-12.56-57.13-42.06-7.66-38.79 12.81-69.85 50.36-79.69 18.08-4.73 36.75-6.53 55.39-8.22a1.01 1-3.9 0 0 .91-1.04c-.52-11.4 1.95-25.42-7.75-34.08-13.48-12.04-38.5-5.4-45.27 11.1-1.71 4.18-2.07 12.04-8.59 11.44q-16.94-1.55-33.84-3.38c-5.73-.62-7.24-4.48-6.12-9.8 6.15-29.16 28.43-46.51 56.77-51.99 32.6-6.3 81.63-1.04 93.24 36.8q2.85 9.3 2.96 23.61.27 38.35.23 76.69c-.02 14.61 6.17 22.62 14.17 34.05q3.74 5.35-1.22 9.62-21.55 18.54-26.17 22.85c-4.1 3.82-8.17 3.7-12.36-.05q-10.51-9.39-18.08-21.35a1 1 0 0 0-1.55-.17Zm-37-70.86c-10.42 3.1-19.25 10.45-22.27 21.17-3 10.65-2.31 24.09 5.41 32.17 10.51 11.02 28.6 5.9 36.91-5.11 9.22-12.22 10.19-24.43 10.39-39.29q.08-6-.02-11.97a1 .99 89.7 0 0-.98-.98q-15.08-.25-29.44 4.01Zm-258.51-31.48c-.43-12.68-1.84-29.46-16.69-32.66-28.15-6.09-31.06 23.28-31.08 42.51q-.03 53.76-.02 107.54c0 6.55-3.97 8-9.93 8q-15.58 0-31.16.01c-5.9 0-9.4-1.64-9.41-7.9V84.75q0-7.82 8.01-7.89 27.8-.23 33.17-.07c5.43.17 6.83 4.33 6.82 9.27q-.01 10.75.01 21.48a.21.2 88.7 0 0 .21.21h.28a.32.31 8.9 0 0 .3-.21c5.99-16.06 17.73-29.48 34.6-33.16 17.49-3.82 35.84-.9 48.42 12.57q6.54 6.99 11.92 18.49.93 2 1.82-.02 12.74-29.05 44.48-32.37c9.24-.97 19.59.86 28.17 4.66 22.44 9.95 29.03 29.47 29.04 53.22q.01 67.46-.01 134.91c-.01 7.75.02 12.67-8.91 12.66q-16.35 0-32.68-.01c-6.12 0-8.89-2.31-8.89-8.37q-.02-60.31.05-120.62c.01-13.8-2.25-27.39-18.94-29.15-11.77-1.24-21.88 5.2-25.88 16.27-3.16 8.78-3.15 19.64-3.16 28.88q-.08 52.26-.08 104.53c0 5.41-2.27 8.43-7.72 8.45q-16.79.04-33.58.01c-5.3 0-8.81-1.54-8.87-7.22q-.75-77.18-.3-94.71.35-13.54.01-23.45Zm607.4 127.69c-27.49-5.34-47.21-25.55-56.99-51.25-22.53-59.29-5.89-160.87 78.54-156.53 67.31 3.46 86.34 79.43 76.11 133.65-9.04 47.89-46.02 84.14-97.66 74.13Zm11.37-168.77c-20.49 4.54-23.28 34.9-23.38 51.22-.11 19.5-3.29 79.84 28.31 80.19 22.06.24 27.41-24.33 28.86-41.19q1.9-22 .39-44.08c-.74-10.93-2.71-27.84-8.56-36.61-5.68-8.52-15.74-11.72-25.62-9.53Zm164.97-1.59c8.5-21.78 22.21-36.33 46.54-37.53 26.92-1.34 46.71 12.91 52.9 39.66 2.39 10.33 2.74 22.28 2.75 34.71q.06 61.37.03 122.76c-.01 5.66-2.07 8.4-7.75 8.43q-17.16.08-34.34 0c-5.02-.02-8.17-2.12-8.16-7.29q.05-93.19-.03-114.87c-.03-8.37-.85-19.01-5.04-27-4.9-9.35-16.87-12.17-26.13-8.25-14.31 6.05-18.59 26.9-18.73 40.88q-.18 17.9-.05 108.56c0 6.39-4.1 8-9.94 8q-15.85.01-31.68-.01c-6.12 0-8.89-2.31-8.89-8.37q-.02-92.2-.01-184.4c0-5.39 1.77-8.74 7.44-8.84q16.39-.28 32.8-.07c5.92.08 7.5 3.62 7.52 9.13q.03 12.25-.08 24.5 0 .38.44.32a.5.49-82.1 0 0 .41-.32Zm-330.41 6.62q-30.11-.1-60.36-.07c-5.49.01-7.52-3.27-7.51-8.54q.01-11.74-.01-23.46c-.01-4.96 1.56-8.66 6.95-8.7q33.49-.21 118.7.03c5.21.02 8.7 1.89 8.82 7.36q.45 19.23-.16 24.08-.36 2.95-4.67 9.14-32.8 47.14-65.7 94.1-1.13 1.62.84 1.58 19.48-.4 38.46 3.96 10.54 2.43 25.58 9.41c7.67 3.56 9.17 7.4 9.19 16.01q.03 11.7-.03 23.37c-.02 3.6-1.1 6.52-4.46 7.73-3.65 1.33-7.83-2.07-11.13-3.49q-50.29-21.53-101.93-4.61c-6.71 2.2-13.63 5.58-20.25 8.71a.95.94 35.3 0 1-.55.09c-5.21-.65-6.59-4.02-6.61-9.02q-.02-7.4.03-27.23c.03-9.25 2.77-14.24 8.45-22.4q33.58-48.24 67.17-96.48 1.09-1.57-.82-1.57Z"/><path fill="#fff" d="M895.93 163.25c.1-16.32 2.89-46.68 23.38-51.22 9.88-2.19 19.94 1.01 25.62 9.53 5.85 8.77 7.82 25.68 8.56 36.61q1.51 22.08-.39 44.08c-1.45 16.86-6.8 41.43-28.86 41.19-31.6-.35-28.42-60.69-28.31-80.19ZM63.19 240.06c-9.88-6.97-10.95-22.36-8.12-33.3 3.16-12.22 12.31-19.22 24.04-22.53q13.76-3.88 28.07-3.61a1 1 0 0 1 .98.98c.39 19.48.89 46.56-18.53 58.4-8.16 4.98-18.36 5.77-26.44.06Zm473.59-34.3c3.02-10.72 11.85-18.07 22.27-21.17q14.36-4.26 29.44-4.01a1 .99 89.7 0 1 .98.98q.1 5.97.02 11.97c-.2 14.86-1.17 27.07-10.39 39.29-8.31 11.01-26.4 16.13-36.91 5.11-7.72-8.08-8.41-21.52-5.41-32.17Z"/><ellipse rx="18.02" ry="17.14" transform="rotate(.6 -24554.051 117366.468)"/><path fill="#f90" d="M679.8 314.45c-3.51-2.77 1.36-7.35 3.7-8.89 26.44-17.33 61.52-21.51 92.34-16.77q10.57 1.62 16.88 5.44c6.58 3.99 3.16 25.46 1.8 32.78q-5.87 31.64-24.51 57.79c-2.04 2.88-18.05 24.34-23.27 17.07q-1.33-1.85-.19-4.6c7.17-17.25 28.17-68.87 17.15-80.22-10.29-10.6-65.09-3.24-80.05-1.5q-2.15.25-3.85-1.1Z"/><path fill="#f90" d="M488.44 429h-15c-12.3-.47-25.16-.89-36.89-2.05q-151.18-15-264.91-115.12-3.22-2.83-4.12-4.71c-2.69-5.62 3.65-9.46 8.55-6.68q125.96 71.65 270.52 81.63c95.87 6.62 189.84-10.52 278.63-46.76q4.26-1.74 6.84-1.57c8.1.54 12.11 8.95 6.39 15.23q-1.35 1.47-9.02 6.7c-70.12 47.81-156.7 71.19-240.99 73.33Z"/></svg>