<?xml version="1.0" encoding="UTF-8" standalone="no"?>
<svg width="800px" height="225px" viewBox="0 0 800 225" version="1.1" xmlns="http://www.w3.org/2000/svg" xmlns:xlink="http://www.w3.org/1999/xlink">
    <!-- Generator: Sketch 3.6.1 (26313) - http://www.bohemiancoding.com/sketch -->
    <title>Amazon.de-Logo_1</title>
    <desc>Created with Sketch.</desc>
    <defs></defs>
    <g id="Page-1" stroke="none" stroke-width="1" fill="none" fill-rule="evenodd">
        <g id="Amazon.de-Logo_1">
            <g id="g476" transform="translate(12.000000, 8.000000)">
                <path d="M360.04,169.353 C326.363,194.207 277.542,207.419 235.516,207.419 C176.604,207.419 123.553,185.637 83.397,149.378 C80.245,146.542 83.048,142.646 86.85,144.863 C130.159,170.066 183.732,185.241 239.048,185.241 C276.369,185.241 317.397,177.495 355.146,161.48 C360.848,159.072 365.616,165.235 360.04,169.353" id="path484" fill="#F6891E"></path>
                <path d="M374.053,153.354 C369.744,147.841 345.587,150.74 334.72,152.039 C331.441,152.435 330.935,149.568 333.897,147.477 C353.175,133.949 384.746,137.862 388.421,142.392 C392.127,146.954 387.454,178.62 369.396,193.732 C366.608,196.061 363.963,194.825 365.198,191.752 C369.269,181.598 378.362,158.867 374.053,153.354" id="path488" fill="#F6891E"></path>
                <path d="M335.497,51.845 L335.497,38.697 C335.497,36.685 337.017,35.354 338.823,35.354 L397.783,35.354 C399.684,35.354 401.188,36.717 401.188,38.681 L401.188,49.96 C401.173,51.845 399.573,54.316 396.753,58.244 L366.212,101.838 C377.538,101.569 389.53,103.264 399.842,109.062 C402.155,110.36 402.788,112.309 402.963,114.194 L402.963,128.229 C402.963,130.177 400.856,132.411 398.622,131.239 C380.469,121.734 356.391,120.689 336.336,131.365 C334.277,132.443 332.138,130.241 332.138,128.308 L332.138,114.97 C332.138,112.832 332.17,109.172 334.324,105.925 L369.713,55.155 L338.902,55.155 C337.017,55.155 335.513,53.809 335.497,51.845" id="path492" fill="#231F20"></path>
                <path d="M120.426,134.006 L102.495,134.006 C100.784,133.895 99.421,132.612 99.279,130.98 L99.295,38.914 C99.295,37.076 100.847,35.603 102.748,35.603 L119.46,35.603 C121.203,35.682 122.612,37.013 122.723,38.692 L122.723,50.699 L123.056,50.699 C127.412,39.088 135.618,33.655 146.659,33.655 C157.89,33.655 164.923,39.088 169.945,50.699 C174.285,39.088 184.17,33.655 194.72,33.655 C202.26,33.655 210.465,36.759 215.487,43.729 C221.174,51.476 220.002,62.722 220.002,72.591 L219.986,130.695 C219.986,132.533 218.433,134.006 216.532,134.006 L198.616,134.006 C196.811,133.895 195.401,132.469 195.401,130.711 L195.385,81.89 C195.385,78.025 195.718,68.33 194.894,64.655 C193.547,58.461 189.524,56.719 184.344,56.719 C179.988,56.719 175.457,59.618 173.62,64.275 C171.782,68.916 171.941,76.662 171.941,81.89 L171.941,130.695 C171.941,132.533 170.404,134.006 168.487,134.006 L150.571,134.006 C148.781,133.895 147.356,132.469 147.356,130.711 L147.34,81.89 C147.34,71.625 149.003,56.513 136.283,56.513 C123.389,56.513 123.895,71.245 123.895,81.89 L123.88,130.695 C123.88,132.533 122.343,134.006 120.426,134.006" id="path496" fill="#231F20"></path>
                <path d="M452.11,52.45 C438.883,52.45 438.044,70.461 438.044,81.708 C438.044,92.939 437.885,116.953 451.936,116.953 C465.844,116.953 466.509,97.596 466.509,85.763 C466.509,78.017 466.177,68.718 463.832,61.368 C461.821,54.968 457.797,52.45 452.11,52.45 M451.936,33.663 C478.564,33.663 492.964,56.521 492.964,85.573 C492.964,113.674 477.059,135.947 451.936,135.947 C425.814,135.947 411.589,113.088 411.589,84.607 C411.589,55.935 425.989,33.663 451.936,33.663" id="path500" fill="#231F20"></path>
                <path d="M527.489,134.006 L509.62,134.006 C507.814,133.895 506.404,132.469 506.404,130.711 L506.373,38.613 C506.515,36.918 508.004,35.603 509.81,35.603 L526.459,35.603 C528.027,35.682 529.31,36.744 529.643,38.169 L529.643,52.252 L529.976,52.252 C534.997,39.658 542.03,33.655 554.418,33.655 C562.465,33.655 570.322,36.569 575.359,44.506 C580.032,51.872 580.032,64.275 580.032,73.177 L580.032,131.107 C579.842,132.739 578.369,134.006 576.611,134.006 L558.616,134.006 C556.968,133.895 555.622,132.675 555.432,131.107 L555.432,81.129 C555.432,71.055 556.604,56.323 544.201,56.323 C539.86,56.323 535.837,59.238 533.825,63.689 C531.322,69.296 530.989,74.92 530.989,81.129 L530.989,130.695 C530.942,132.533 529.405,134.006 527.489,134.006" id="path504" fill="#231F20"></path>
                <path d="M71.437,133.778 C70.249,134.839 68.538,134.918 67.192,134.19 C61.236,129.247 60.174,126.951 56.911,122.246 C47.074,132.273 40.104,135.283 27.352,135.283 C12.24,135.283 0.502,125.968 0.502,107.324 C0.502,92.766 8.391,82.866 19.622,78.003 C29.364,73.741 42.955,72.965 53.347,71.793 L53.347,69.464 C53.347,65.187 53.695,60.15 51.177,56.459 C48.991,53.148 44.793,51.802 41.102,51.802 C34.259,51.802 28.176,55.303 26.687,62.574 C26.37,64.189 25.198,65.789 23.566,65.868 L6.189,63.983 C4.716,63.651 3.084,62.479 3.512,60.229 C7.504,39.145 26.56,32.777 43.621,32.777 C52.349,32.777 63.754,35.106 70.645,41.695 C79.357,49.853 78.518,60.72 78.518,72.569 L78.518,100.512 C78.518,108.924 82.019,112.615 85.298,117.145 C86.438,118.777 86.692,120.709 85.234,121.897 C81.575,124.97 75.065,130.626 71.485,133.825 L71.437,133.778 L71.437,133.778 Z M53.347,90.041 C53.347,97.027 53.521,102.857 50.005,109.066 C47.153,114.119 42.623,117.224 37.585,117.224 C30.695,117.224 26.671,111.981 26.671,104.219 C26.671,88.933 40.373,86.161 53.347,86.161 L53.347,90.041 L53.347,90.041 L53.347,90.041 Z" id="path508" fill="#231F20"></path>
                <path d="M306.578,133.778 C305.39,134.839 303.679,134.918 302.332,134.19 C296.376,129.247 295.315,126.951 292.052,122.246 C282.215,132.273 275.245,135.283 262.493,135.283 C247.381,135.283 235.643,125.968 235.643,107.324 C235.643,92.766 243.531,82.866 254.763,78.003 C264.505,73.741 278.096,72.965 288.488,71.793 L288.488,69.464 C288.488,65.187 288.836,60.15 286.317,56.459 C284.131,53.148 279.934,51.802 276.243,51.802 C269.399,51.802 263.317,55.303 261.828,62.574 C261.511,64.189 260.338,65.789 258.707,65.868 L241.33,63.983 C239.856,63.651 238.225,62.479 238.652,60.229 C242.644,39.145 261.685,32.777 278.761,32.777 C287.49,32.777 298.895,35.106 305.77,41.695 C314.498,49.853 313.659,60.72 313.659,72.569 L313.659,100.512 C313.659,108.924 317.159,112.615 320.438,117.145 C321.579,118.777 321.832,120.709 320.375,121.897 C316.716,124.97 310.205,130.626 306.625,133.825 L306.578,133.778 L306.578,133.778 Z M288.488,90.041 C288.488,97.027 288.662,102.857 285.145,109.066 C282.278,114.119 277.763,117.224 272.726,117.224 C265.835,117.224 261.812,111.981 261.812,104.219 C261.812,88.933 275.514,86.161 288.488,86.161 L288.488,90.041 L288.488,90.041 L288.488,90.041 Z" id="path512" fill="#231F20"></path>
                <path d="M591.283,126.702 C591.283,122.076 595.243,118.322 600.106,118.322 C604.985,118.322 608.945,122.076 608.945,126.702 C608.945,131.327 604.985,135.082 600.106,135.082 C595.243,135.082 591.283,131.327 591.283,126.702 M714.096,74.586 L759.242,74.586 C759.401,58.539 751.829,44.932 737.287,44.441 C723.49,44.948 714.587,59.299 714.096,74.586 M671.785,91.314 L671.785,75.568 C671.785,68.756 670.962,61.755 667.445,55.909 C663.422,49.161 656.277,45.122 649.197,44.837 C642.147,45.169 636.239,50.318 632.675,57.272 C628.825,65.049 627.653,74 627.653,82.95 C627.653,98.854 631.233,122.71 648.769,123.407 C656.008,123.09 662.566,118.322 666.78,111.558 C670.787,105.127 671.785,98.711 671.785,91.314 M737.271,32.766 C763.725,32.766 775.052,56.686 775.194,83.013 C775.21,84.518 773.642,85.848 772.153,85.848 L713.431,85.864 C713.431,93.658 713.764,100.85 716.948,108.247 C720.844,117.324 729.335,122.9 737.952,123.217 C747.71,122.884 755.029,116.706 758.941,106.885 C759.528,105.428 761.365,104.509 762.791,104.762 L770.664,106.41 C772.327,106.806 773.404,108.374 772.976,109.816 C767.385,126.258 754.253,136.064 736.891,136.064 C710.168,136.064 697.162,112.334 697.162,84.708 C697.162,57.462 711.071,32.766 737.271,32.766 M683.302,134.115 L676.062,134.115 C674.526,134.131 672.974,132.769 672.958,131.28 L672.958,119.209 C667.54,130.028 659.43,136.064 646.82,136.064 C634.322,136.064 626.275,129.838 620.097,119.336 C614.236,109.214 612.066,96.763 612.066,84.708 C612.066,59.996 621.935,32.766 647.945,32.766 C659.224,32.766 666.004,37.835 671.785,46.31 L671.785,3.508 C671.801,2.003 673.354,0.657 674.874,0.657 L683.286,0.657 C684.822,0.657 686.375,2.003 686.391,3.508 L686.391,131.296 C686.375,132.785 684.854,134.115 683.302,134.115" id="path516" fill="#231F20"></path>
            </g>
        </g>
    </g>
</svg>