<?xml version="1.0" encoding="UTF-8" standalone="no"?>
<svg
   viewBox="0 0 499.99999 111.0997"
   version="1.1"
   id="svg10"
   sodipodi:docname="Kotsovolos logo.svg"
   width="500"
   height="111.09969"
   inkscape:version="1.4 (86a8ad7, 2024-10-11)"
   xmlns:inkscape="http://www.inkscape.org/namespaces/inkscape"
   xmlns:sodipodi="http://sodipodi.sourceforge.net/DTD/sodipodi-0.dtd"
   xmlns="http://www.w3.org/2000/svg"
   xmlns:svg="http://www.w3.org/2000/svg"
   xmlns:rdf="http://www.w3.org/1999/02/22-rdf-syntax-ns#"
   xmlns:cc="http://creativecommons.org/ns#"
   xmlns:dc="http://purl.org/dc/elements/1.1/">
  <sodipodi:namedview
     id="namedview10"
     pagecolor="#ffffff"
     bordercolor="#000000"
     borderopacity="0.25"
     inkscape:showpageshadow="2"
     inkscape:pageopacity="0.0"
     inkscape:pagecheckerboard="0"
     inkscape:deskcolor="#d1d1d1"
     inkscape:zoom="1.1383481"
     inkscape:cx="197.21559"
     inkscape:cy="21.522414"
     inkscape:window-width="1920"
     inkscape:window-height="1001"
     inkscape:window-x="-9"
     inkscape:window-y="-9"
     inkscape:window-maximized="1"
     inkscape:current-layer="svg10" />
  <defs
     id="defs1">
    <style
       id="style1">.cls-1{fill:#cc151a;}.cls-2{fill:#fff;}</style>
  </defs>
  <title
     id="title1">Asset 1</title>
  <g
     id="Layer_2"
     data-name="Layer 2"
     transform="scale(2.5681853)">
    <g
       id="Layer_1-2"
       data-name="Layer 1">
      <path
         class="cls-1"
         d="m 194.69,39.57 c 0,2 -2,3.69 -4.48,3.69 H 4.48 C 2,43.26 0,41.6 0,39.57 V 3.69 C 0,1.66 2,0 4.48,0 h 185.73 c 2.47,0 4.48,1.66 4.48,3.69 z"
         id="path1" />
      <path
         class="cls-2"
         d="m 86.32,7.91 c -5.63,0 -9.11,5.28 -9.1,13.74 0.01,8.46 3.42,13.69 9.13,13.69 5.54,0 9.12,-5.25 9.1,-13.35 C 95.45,13.16 92,7.91 86.32,7.91 Z m 0,21.14 c -0.73,0 -3,0 -3,-7.41 0,-7.41 2.22,-7.45 3,-7.45 2,0 3,2.51 3,7.45 0,4.94 -1,7.41 -2.99,7.41 z"
         id="path2" />
      <path
         class="cls-2"
         d="m 123.92,7.91 c -5.6,0 -9.11,5.28 -9.09,13.74 0.02,8.46 3.42,13.69 9.12,13.69 5.55,0 9.13,-5.25 9.13,-13.35 -0.02,-8.81 -3.43,-14.08 -9.16,-14.08 z m 0,21.14 c -0.75,0 -3,0 -3,-7.41 0,-7.41 2.21,-7.45 2.94,-7.45 2,0 3,2.51 3,7.45 0,4.94 -0.93,7.41 -2.86,7.41 z"
         id="path3" />
      <path
         class="cls-2"
         d="m 160.29,7.91 c -5.61,0 -9.09,5.28 -9.09,13.74 0,8.46 3.43,13.69 9.12,13.69 5.69,0 9.13,-5.25 9.13,-13.35 C 169.44,13.18 166,7.91 160.29,7.91 Z m 0,21.14 c -0.74,0 -3,0 -3,-7.41 0,-7.41 2.21,-7.45 2.95,-7.45 2,0 3,2.51 3,7.45 0,4.94 -0.94,7.41 -2.92,7.41 z"
         id="path4" />
      <path
         class="cls-2"
         d="m 168.37,35 h 15.35 v -6.35 h -6.45 l 2.93,-7.95 c 0,-0.06 -2.4,-6.35 -2.4,-6.35 h 5.92 V 8.27 H 168.94 L 174,20.72 c 0,0 -5.46,13.82 -5.63,14.28 z"
         id="path5" />
      <path
         class="cls-2"
         d="m 138.84,35 c 0.1,-0.38 2.87,-12.09 2.87,-12.09 l 0.38,-1.78 h 0.14 c 0.13,0.71 0.27,1.32 0.4,1.89 0,0.09 2.73,11.07 3,12 h 6.27 C 151.74,34.44 144.81,8.87 144.67,8.3 h -5 c -0.1,0.38 -7,26.14 -7.15,26.72 z"
         id="path6" />
      <path
         class="cls-2"
         d="M 76.55,8.27 H 47.23 v 6.13 h 4.19 c 0,0.35 0,20.11 0,20.59 h 6.18 c 0,-0.48 0,-20.24 0,-20.59 h 4.21 v -6 c 0.55,1.32 5,12.32 5,12.32 L 61.19,35 H 76.55 V 28.65 H 70.1 L 73,20.7 c 0,-0.06 -2.4,-6.35 -2.4,-6.35 h 5.93 z"
         id="path7" />
      <path
         class="cls-2"
         d="m 31.23,28.84 h -2.31 c 0,0.15 0,5.86 0,6.15 h 8.28 v -7.62 h -0.1 c -2.27,-1 -2.61,-4.67 -2.61,-6.76 0,-0.63 0.08,-6.2 3.32,-6.2 3.24,0 3.32,5.56 3.32,6.2 0,2.08 -0.33,5.74 -2.61,6.76 v 0 H 38.44 V 35 h 8.28 v -6.17 h -2.31 l 0.12,-0.11 a 13.06,13.06 0 0 0 2.75,-8.11 c 0,-6 -3,-12.52 -9.47,-12.52 v 0 c -6.5,0 -9.46,6.51 -9.45,12.53 a 12.9,12.9 0 0 0 2.78,8.11 z"
         id="path8" />
      <path
         class="cls-2"
         d="M 17.91,35 V 26 H 18 l 0.07,0.05 c 0,0 3.38,8.79 3.46,9 h 6.55 C 28,34.69 22.7,20.6 22.7,20.6 v -0.05 c 0,0 5,-11.77 5.24,-12.28 h -6.48 c -0.14,0.32 -3.43,8.11 -3.43,8.11 h -0.08 v -0.06 c 0,0 0,-7.83 0,-8.09 h -6 V 35 Z"
         id="path9" />
      <path
         class="cls-2"
         d="m 99.77,35 h 5.92 a 9,9 0 0 0 6,-1.95 7.48,7.48 0 0 0 2.15,-5.63 c 0,-3.51 -1.67,-6 -4.47,-6.6 v 0 -0.17 0 a 6.15,6.15 0 0 0 2.75,-5.65 7.06,7.06 0 0 0 -1.6,-4.73 6.48,6.48 0 0 0 -5.09,-2 h -8.1 V 35 Z m 7.06,-10.64 a 2.69,2.69 0 0 1 1.17,2.44 2.69,2.69 0 0 1 -1,2.35 5.78,5.78 0 0 1 -3.39,0.69 H 103 v -6 h 0.64 a 6.4,6.4 0 0 1 3.16,0.51 z m -3.27,-11 a 3.7,3.7 0 0 1 2.28,0.52 2.68,2.68 0 0 1 0.94,2.2 2.63,2.63 0 0 1 -1,2.2 3.59,3.59 0 0 1 -2.19,0.52 H 103 v -5.4 z"
         id="path10" />
    </g>
  </g>
  <metadata
     id="metadata10">
    <rdf:RDF>
      <cc:Work
         rdf:about="">
        <dc:title>Asset 1</dc:title>
      </cc:Work>
    </rdf:RDF>
  </metadata>
</svg>
